<svg width="200" height="200" viewBox="0 0 200 200" fill="none" xmlns="http://www.w3.org/2000/svg">
<path d="M34.375 67.5C34.375 64.7386 36.6136 62.5 39.375 62.5H160.625C163.386 62.5 165.625 64.7386 165.625 67.5V157.25C165.625 170.505 154.88 181.25 141.625 181.25H58.375C45.1202 181.25 34.375 170.505 34.375 157.25V67.5Z" fill="#336DFF"/>
<path d="M131.25 50C131.25 41.712 127.958 33.7634 122.097 27.9029C116.237 22.0424 108.288 18.75 100 18.75C91.712 18.75 83.7634 22.0424 77.9029 27.9029C72.0424 33.7634 68.75 41.712 68.75 50" stroke="#336DFF" stroke-width="4" stroke-linecap="round"/>
<path d="M56.25 100H169C172.314 100 175 102.686 175 106V131.5C175 134.814 172.314 137.5 169 137.5H56.25V100Z" fill="#C8D1EA"/>
<circle cx="56.25" cy="118.75" r="31.25" fill="#C8D1EA"/>
<circle cx="56.25" cy="106.25" r="6.25" fill="#336DFF"/>
<circle cx="106.25" cy="118.75" r="6.25" fill="#336DFF"/>
<circle cx="128.125" cy="118.75" r="6.25" fill="#336DFF"/>
<circle cx="150" cy="118.75" r="6.25" fill="#336DFF"/>
<path d="M69.875 134.375C70.9796 134.375 71.8882 133.476 71.7472 132.38C71.5713 131.014 71.2151 129.674 70.6856 128.396C69.9004 126.5 68.7495 124.777 67.2985 123.326C65.8476 121.876 64.1251 120.725 62.2294 119.939C60.3337 119.154 58.3019 118.75 56.25 118.75C54.1981 118.75 52.1663 119.154 50.2706 119.939C48.3749 120.725 46.6524 121.876 45.2015 123.326C43.7505 124.777 42.5996 126.5 41.8144 128.396C41.2849 129.674 40.9287 131.014 40.7528 132.38C40.6118 133.476 41.5204 134.375 42.625 134.375L69.875 134.375Z" fill="#336DFF"/>
</svg>
